<svg xmlns="http://www.w3.org/2000/svg" xmlns:xlink="http://www.w3.org/1999/xlink" width="213" height="88" viewBox="0 0 213 88">
  <defs>
    <style>
      .cls-1 {
        clip-path: url(#clip-Artboard_4);
      }

      .cls-2 {
        fill: #71adff;
      }

      .cls-3 {
        fill: none;
        stroke: #000;
        stroke-width: 8px;
      }
    </style>
    <clipPath id="clip-Artboard_4">
      <rect width="213" height="88"/>
    </clipPath>
  </defs>
  <g id="Artboard_4" data-name="Artboard – 4" class="cls-1">
    <g id="Group_90" data-name="Group 90" transform="translate(-151 -165)">
      <path id="GET" d="M24.06-12.21q.03.33.045.63t.015.6q0,.42-.03.81T24-9.39a10.635,10.635,0,0,1-1.215,3.7A11,11,0,0,1,20.415-2.7,10.886,10.886,0,0,1,17.16-.72a10.555,10.555,0,0,1-3.9.72A10.5,10.5,0,0,1,9.015-.87,11.018,11.018,0,0,1,5.55-3.225,11.119,11.119,0,0,1,3.225-6.7,10.737,10.737,0,0,1,2.37-10.98a10.737,10.737,0,0,1,.855-4.275,11.119,11.119,0,0,1,2.325-3.48A11.018,11.018,0,0,1,9.015-21.09a10.5,10.5,0,0,1,4.245-.87,10.6,10.6,0,0,1,3.255.495A10.546,10.546,0,0,1,19.35-20.07a11.1,11.1,0,0,1,2.3,2.145A11.539,11.539,0,0,1,23.28-15.21H19.59a7.712,7.712,0,0,0-2.655-2.7,6.9,6.9,0,0,0-3.675-1.02,7,7,0,0,0-2.94.63,7.618,7.618,0,0,0-2.4,1.71A8.256,8.256,0,0,0,6.3-14.07a7.953,7.953,0,0,0-.6,3.09,7.953,7.953,0,0,0,.6,3.09A8.256,8.256,0,0,0,7.92-5.37a7.618,7.618,0,0,0,2.4,1.71,7,7,0,0,0,2.94.63,7.034,7.034,0,0,0,2.58-.48,7.392,7.392,0,0,0,2.2-1.335,7.958,7.958,0,0,0,1.65-2.025,8.241,8.241,0,0,0,.945-2.52H12.96v-2.82h11.1Zm7.98,3.78v5.22h9.78V-.06H28.86v-21.9H41.61v3.06H32.04v7.47h8.61v3Zm14.52-10.5v-3.06H60.6v3.06H55.17V-.03H51.99v-18.9Z" transform="translate(152 189)"/>
      <path id="CODING" class="cls-2" d="M22.05-5.05a11.656,11.656,0,0,0,5.875-1.525A12.812,12.812,0,0,0,32.3-10.65L36.65-7.4A18.34,18.34,0,0,1,30.375-2,17.5,17.5,0,0,1,22.05,0,17.331,17.331,0,0,1,15-1.45,18.443,18.443,0,0,1,9.25-5.375a18.532,18.532,0,0,1-3.875-5.8A17.9,17.9,0,0,1,3.95-18.3a17.9,17.9,0,0,1,1.425-7.125,18.532,18.532,0,0,1,3.875-5.8A18.443,18.443,0,0,1,15-35.15a17.331,17.331,0,0,1,7.05-1.45,17.5,17.5,0,0,1,8.325,2,18.34,18.34,0,0,1,6.275,5.4L32.3-25.95a12.812,12.812,0,0,0-4.375-4.075A11.656,11.656,0,0,0,22.05-31.55a11.492,11.492,0,0,0-4.875,1.05A12.782,12.782,0,0,0,13.2-27.65a13.761,13.761,0,0,0-2.7,4.2,13.255,13.255,0,0,0-1,5.15,13.254,13.254,0,0,0,1,5.15,13.761,13.761,0,0,0,2.7,4.2A12.782,12.782,0,0,0,17.175-6.1,11.492,11.492,0,0,0,22.05-5.05ZM62.8-36.8a17.805,17.805,0,0,1,7.15,1.45,18.377,18.377,0,0,1,5.825,3.95,18.467,18.467,0,0,1,3.9,5.875A18.382,18.382,0,0,1,81.1-18.3a18.075,18.075,0,0,1-1.425,7.15,18.541,18.541,0,0,1-3.9,5.85A18.377,18.377,0,0,1,69.95-1.35,17.805,17.805,0,0,1,62.8.1a17.628,17.628,0,0,1-7.125-1.45,18.455,18.455,0,0,1-5.8-3.95,18.541,18.541,0,0,1-3.9-5.85A18.074,18.074,0,0,1,44.55-18.3a18.382,18.382,0,0,1,1.425-7.225,18.466,18.466,0,0,1,3.9-5.875,18.455,18.455,0,0,1,5.8-3.95A17.628,17.628,0,0,1,62.8-36.8ZM62.8-5a11.829,11.829,0,0,0,4.925-1.05,12.911,12.911,0,0,0,4.05-2.85A13.447,13.447,0,0,0,74.5-13.125a13.44,13.44,0,0,0,1-5.175,13.627,13.627,0,0,0-1-5.2,13.681,13.681,0,0,0-2.725-4.275,12.717,12.717,0,0,0-4.05-2.875A11.829,11.829,0,0,0,62.8-31.7a11.66,11.66,0,0,0-4.9,1.05,12.8,12.8,0,0,0-4.025,2.875A13.681,13.681,0,0,0,51.15-23.5a13.627,13.627,0,0,0-1,5.2,13.44,13.44,0,0,0,1,5.175A13.447,13.447,0,0,0,53.875-8.9,13,13,0,0,0,57.9-6.05,11.66,11.66,0,0,0,62.8-5Zm39-31.65a16.691,16.691,0,0,1,6.925,1.45,17.881,17.881,0,0,1,5.625,3.95,18.932,18.932,0,0,1,3.8,5.825,18.171,18.171,0,0,1,1.4,7.125,18.757,18.757,0,0,1-1.35,7.125,18.137,18.137,0,0,1-3.725,5.8A17.7,17.7,0,0,1,108.85-1.45,17.1,17.1,0,0,1,101.8,0H89V-36.65ZM101.2-4.7a12.232,12.232,0,0,0,5.15-1.075A12.5,12.5,0,0,0,110.4-8.7a13.435,13.435,0,0,0,2.65-4.325A14.593,14.593,0,0,0,114-18.3a14.593,14.593,0,0,0-.95-5.275,13.211,13.211,0,0,0-2.675-4.325,12.78,12.78,0,0,0-4.075-2.925,12.112,12.112,0,0,0-5.1-1.075H94.35V-4.7ZM127.45,0V-36.65h5.35V0Zm18.3-23.05V.1H140.7V-37.25L164.4-8.9V-36.6h5.05V.1h-4.9Zm67.75,2.7q.05.55.075,1.05t.025,1q0,.7-.05,1.35t-.15,1.3a17.725,17.725,0,0,1-2.025,6.175,18.34,18.34,0,0,1-3.95,4.975A18.144,18.144,0,0,1,202-1.2,17.592,17.592,0,0,1,195.5,0a17.506,17.506,0,0,1-7.075-1.45,18.364,18.364,0,0,1-5.775-3.925,18.532,18.532,0,0,1-3.875-5.8A17.9,17.9,0,0,1,177.35-18.3a17.9,17.9,0,0,1,1.425-7.125,18.532,18.532,0,0,1,3.875-5.8,18.364,18.364,0,0,1,5.775-3.925A17.506,17.506,0,0,1,195.5-36.6a17.672,17.672,0,0,1,5.425.825,17.577,17.577,0,0,1,4.725,2.325,18.5,18.5,0,0,1,3.825,3.575A19.231,19.231,0,0,1,212.2-25.35h-6.15a12.854,12.854,0,0,0-4.425-4.5,11.5,11.5,0,0,0-6.125-1.7,11.66,11.66,0,0,0-4.9,1.05,12.7,12.7,0,0,0-4,2.85,13.761,13.761,0,0,0-2.7,4.2,13.254,13.254,0,0,0-1,5.15,13.254,13.254,0,0,0,1,5.15,13.761,13.761,0,0,0,2.7,4.2,12.7,12.7,0,0,0,4,2.85,11.66,11.66,0,0,0,4.9,1.05,11.723,11.723,0,0,0,4.3-.8,12.321,12.321,0,0,0,3.675-2.225,13.264,13.264,0,0,0,2.75-3.375,13.736,13.736,0,0,0,1.575-4.2H195v-4.7h18.5Z" transform="translate(147 233)"/>
      <line id="Line_275" data-name="Line 275" class="cls-3" x2="23" transform="translate(153.5 245.5)"/>
      <line id="Line_276" data-name="Line 276" class="cls-3" x2="170" transform="translate(192.5 245.5)"/>
    </g>
  </g>
</svg>
